<svg id="svg" version="1.1" xmlns="http://www.w3.org/2000/svg" xmlns:xlink="http://www.w3.org/1999/xlink" width="400" height="400" viewBox="0, 0, 400,400"><g id="svgg"><path id="path0" d="M197.852 93.780 C 186.067 95.185,173.530 101.090,164.648 109.420 C 163.359 110.629,161.846 112.036,161.285 112.547 C 142.109 130.019,131.641 168.638,137.688 199.606 C 151.305 269.344,220.371 289.908,256.430 234.961 C 268.554 216.485,274.832 188.249,271.542 166.992 C 264.285 120.099,233.514 89.528,197.852 93.780 M210.812 96.893 C 223.897 98.642,239.983 107.967,247.939 118.417 C 248.535 119.200,250.144 121.310,251.514 123.104 C 252.883 124.899,254.099 126.631,254.216 126.953 C 254.333 127.275,254.901 128.242,255.478 129.102 C 257.052 131.444,259.733 136.456,260.541 138.565 C 260.934 139.591,261.818 141.836,262.505 143.555 C 272.384 168.240,270.889 201.939,258.901 224.805 C 233.089 274.040,179.680 276.814,151.596 230.377 C 148.814 225.778,148.394 224.950,146.085 219.531 C 137.630 199.692,136.056 177.304,141.459 153.711 C 142.949 147.203,147.879 135.379,151.406 129.853 C 152.102 128.763,153.056 127.181,153.527 126.338 C 155.014 123.675,159.429 118.306,163.477 114.238 C 176.922 100.723,193.639 94.597,210.812 96.893 M202.658 104.835 C 202.567 108.897,202.655 110.157,203.027 110.157 C 203.392 110.156,203.516 108.919,203.516 105.273 C 203.516 100.599,203.550 100.391,204.323 100.391 C 207.040 100.391,207.678 102.888,205.422 104.690 C 204.714 105.256,204.754 105.382,206.480 107.955 C 207.691 109.759,208.404 110.502,208.671 110.235 C 208.937 109.969,208.530 109.131,207.422 107.662 L 205.777 105.484 206.795 104.275 C 208.698 102.013,207.734 100.071,204.530 99.710 L 202.778 99.513 202.658 104.835 M192.267 103.785 C 190.409 110.928,190.286 111.529,190.621 111.867 C 190.815 112.064,191.079 111.561,191.235 110.695 C 191.677 108.253,191.981 107.955,194.554 107.449 C 195.872 107.189,196.994 107.033,197.047 107.102 C 197.100 107.170,197.590 107.990,198.136 108.923 C 198.750 109.973,199.234 110.448,199.406 110.169 C 199.559 109.922,199.257 109.071,198.735 108.278 C 196.104 104.281,194.840 102.440,194.041 101.442 L 193.162 100.344 192.267 103.785 M213.493 101.660 C 213.386 102.144,213.014 104.297,212.665 106.445 C 212.317 108.594,212.005 110.505,211.973 110.693 C 211.941 110.881,212.102 111.105,212.331 111.191 C 212.660 111.313,214.479 102.657,214.457 101.074 C 214.448 100.385,213.670 100.858,213.493 101.660 M194.856 104.068 C 196.472 106.319,196.433 106.505,194.243 106.972 C 191.954 107.460,191.997 107.511,192.586 105.002 C 193.342 101.779,193.242 101.821,194.856 104.068 M219.762 107.056 C 216.476 110.693,215.799 111.632,216.186 112.019 C 216.319 112.152,216.953 111.624,217.595 110.846 L 218.761 109.430 221.074 110.211 C 223.073 110.886,223.417 111.148,223.608 112.137 C 223.729 112.766,223.934 113.826,224.063 114.492 C 224.195 115.175,224.445 115.555,224.636 115.364 C 224.959 115.041,223.462 104.158,223.047 103.805 C 222.939 103.713,221.461 105.177,219.762 107.056 M181.893 107.529 C 181.758 108.652,181.646 110.405,181.644 111.426 C 181.640 113.778,181.509 113.759,178.485 110.969 C 175.466 108.184,175.602 108.090,176.153 112.571 C 176.400 114.573,176.692 116.958,176.801 117.871 C 176.911 118.784,177.166 119.531,177.368 119.531 C 177.823 119.531,177.819 119.410,177.204 114.746 C 176.704 110.956,176.798 110.396,177.744 111.535 C 178.017 111.864,179.075 112.832,180.094 113.685 L 181.947 115.237 182.282 111.256 L 182.617 107.274 185.431 110.466 C 189.216 114.759,189.483 113.834,185.739 109.397 C 182.041 105.013,182.186 105.084,181.893 107.529 M223.128 107.715 C 223.315 110.463,223.411 110.334,221.608 109.757 C 219.296 109.018,219.225 108.745,220.899 107.031 C 222.863 105.019,222.946 105.044,223.128 107.715 M230.767 111.268 C 227.084 116.840,226.660 117.545,226.865 117.750 C 227.361 118.246,227.747 117.859,228.887 115.723 C 229.546 114.487,230.499 112.959,231.004 112.326 L 231.923 111.175 232.594 115.842 C 232.964 118.408,233.385 121.193,233.532 122.030 L 233.798 123.552 234.843 121.639 C 235.418 120.587,236.684 118.586,237.657 117.193 C 238.769 115.598,239.288 114.522,239.055 114.289 C 238.851 114.086,238.615 113.995,238.530 114.089 C 238.219 114.430,235.703 118.587,235.172 119.637 C 234.380 121.204,234.180 120.685,233.402 115.039 C 232.515 108.607,232.521 108.615,230.767 111.268 M199.239 112.279 C 198.068 112.573,195.519 113.617,193.575 114.599 C 191.630 115.581,189.045 116.812,187.830 117.334 C 167.608 126.027,152.857 156.644,155.061 185.352 C 158.936 235.817,199.378 262.550,230.411 235.160 C 253.487 214.792,259.366 172.080,243.295 141.561 C 238.319 132.111,232.274 125.212,224.609 120.235 C 212.947 112.663,211.589 112.075,205.273 111.870 C 202.842 111.791,200.563 111.946,199.239 112.279 M211.504 113.458 C 217.704 115.539,222.384 119.537,227.093 126.773 C 239.562 145.935,231.387 178.686,212.374 185.744 L 209.708 186.734 209.988 185.847 C 210.143 185.360,210.692 184.405,211.209 183.727 C 211.835 182.904,212.004 182.403,211.716 182.225 C 210.779 181.646,209.342 182.530,207.585 184.767 C 205.160 187.852,204.486 187.857,202.114 184.802 C 200.488 182.708,199.546 182.052,198.145 182.037 C 197.340 182.028,197.586 182.989,198.828 184.704 C 200.675 187.253,200.081 187.292,195.021 184.954 C 180.272 178.139,172.743 156.984,177.944 136.971 C 179.527 130.880,179.772 130.519,180.103 133.789 C 181.841 150.999,197.965 156.351,204.737 141.966 C 209.542 131.759,205.766 118.373,197.225 115.340 C 194.765 114.466,194.801 114.368,197.949 113.365 C 202.686 111.857,206.820 111.885,211.504 113.458 M165.071 117.917 C 164.880 118.226,165.639 119.465,167.150 121.306 C 168.460 122.901,169.531 124.292,169.531 124.397 C 169.531 124.501,167.239 124.636,164.438 124.696 L 159.344 124.805 162.317 128.516 C 166.050 133.175,166.016 133.140,166.016 132.202 C 166.016 131.780,164.961 130.266,163.672 128.838 C 160.531 125.357,160.473 125.432,166.431 125.304 L 171.533 125.195 168.872 122.017 C 167.408 120.270,166.022 118.522,165.792 118.134 C 165.479 117.606,165.297 117.551,165.071 117.917 M240.332 123.522 C 237.660 124.486,235.938 125.316,235.938 125.640 C 235.938 126.301,235.922 126.302,237.693 125.562 C 239.512 124.802,239.788 124.910,241.572 127.087 L 243.016 128.849 242.406 130.902 C 241.675 133.363,241.684 133.204,242.285 133.200 C 242.581 133.199,243.285 131.241,244.075 128.220 C 244.790 125.482,245.461 122.935,245.566 122.559 C 245.828 121.616,245.390 121.697,240.332 123.522 M243.905 125.424 L 243.218 127.872 241.740 126.156 L 240.263 124.441 242.299 123.607 C 244.815 122.577,244.730 122.481,243.905 125.424 M155.206 132.182 C 153.486 133.633,153.007 135.311,154.048 136.231 C 155.928 137.891,160.595 141.097,160.814 140.879 C 161.197 140.495,160.257 139.603,156.992 137.253 C 153.494 134.734,153.550 134.838,154.936 133.452 C 156.565 131.823,157.720 132.431,158.422 135.286 C 158.641 136.176,158.857 136.349,159.523 136.171 C 159.979 136.048,161.201 135.946,162.240 135.943 C 163.577 135.939,164.079 135.795,163.960 135.449 C 163.843 135.111,163.070 135.001,161.438 135.092 L 159.084 135.223 158.823 133.834 C 158.378 131.460,156.874 130.774,155.206 132.182 M248.853 131.901 C 248.198 132.361,248.047 132.886,248.047 134.710 C 248.047 137.908,247.135 138.495,245.061 136.631 C 244.600 136.217,244.121 136.044,243.996 136.247 C 243.704 136.719,244.810 137.719,246.218 138.254 C 248.287 139.041,249.496 137.616,249.000 134.974 C 248.549 132.568,250.111 131.670,252.068 133.210 C 252.620 133.643,253.173 133.833,253.298 133.630 C 253.945 132.584,250.045 131.066,248.853 131.901 M149.723 142.578 C 149.269 143.760,149.014 144.842,149.156 144.983 C 149.606 145.429,157.106 149.665,157.220 149.537 C 157.818 148.858,159.288 145.313,158.971 145.313 C 158.742 145.313,158.281 145.972,157.947 146.777 C 157.163 148.668,157.306 148.598,155.798 147.832 C 153.575 146.702,153.467 146.540,154.112 145.293 C 154.777 144.007,154.862 143.205,154.297 143.555 C 154.082 143.687,153.904 144.093,153.900 144.457 C 153.886 145.987,153.316 146.207,151.615 145.340 C 149.954 144.492,149.693 143.881,150.415 142.532 C 150.644 142.105,150.767 141.458,150.689 141.093 C 150.607 140.706,150.204 141.326,149.723 142.578 M252.288 145.124 C 251.200 145.714,250.391 147.456,250.391 149.206 C 250.391 150.926,251.545 154.297,252.134 154.297 C 252.578 154.297,252.564 154.075,252.054 153.054 C 248.914 146.759,254.918 142.922,258.828 148.724 C 259.578 149.838,260.156 150.031,260.156 149.167 C 260.156 146.869,254.462 143.943,252.288 145.124 M146.484 152.312 C 146.484 152.510,147.363 152.963,148.437 153.320 C 150.113 153.877,150.362 154.089,150.193 154.816 C 150.085 155.283,149.753 156.860,149.456 158.323 C 148.795 161.567,148.886 161.476,147.085 160.723 C 145.618 160.110,144.061 160.242,144.759 160.921 C 144.956 161.112,146.787 161.746,148.828 162.328 C 150.869 162.911,152.759 163.470,153.027 163.571 C 153.296 163.673,153.516 163.491,153.516 163.167 C 153.516 162.782,152.829 162.413,151.536 162.103 L 149.556 161.628 149.800 160.013 C 150.722 153.909,150.729 153.899,153.456 154.862 C 154.881 155.365,156.021 155.110,155.350 154.439 C 154.628 153.716,146.484 151.763,146.484 152.312 M255.418 155.645 C 252.714 157.173,252.528 162.353,255.085 164.911 C 257.243 167.068,261.534 166.013,262.500 163.087 C 264.080 158.298,259.410 153.391,255.418 155.645 M260.430 157.129 C 263.340 160.323,262.206 164.599,258.312 165.115 C 254.540 165.616,252.248 160.192,255.048 157.392 C 256.541 155.899,259.192 155.769,260.430 157.129 M143.556 168.457 C 143.404 170.229,143.145 172.427,142.979 173.340 C 142.814 174.253,142.808 175.000,142.965 175.000 C 143.122 175.000,143.357 174.097,143.488 172.994 C 143.793 170.416,143.468 170.542,147.963 171.257 C 152.636 172.000,152.215 171.993,152.468 171.334 C 152.629 170.913,151.834 170.690,148.896 170.334 C 144.085 169.750,143.672 169.624,143.908 168.816 C 144.427 167.043,144.587 165.234,144.225 165.234 C 144.008 165.234,143.707 166.685,143.556 168.457 M259.961 170.540 C 259.531 170.606,258.169 170.770,256.934 170.905 L 254.688 171.150 254.688 173.466 C 254.688 175.304,254.813 175.781,255.297 175.781 C 255.796 175.781,255.861 175.470,255.651 174.070 C 255.332 171.942,255.265 171.979,260.082 171.647 C 263.039 171.443,264.063 171.236,264.063 170.843 C 264.063 170.337,262.177 170.197,259.961 170.540 M149.517 179.377 L 147.667 180.978 146.852 179.942 C 145.044 177.643,143.173 179.054,142.878 182.939 C 142.714 185.093,142.748 185.203,143.520 184.995 C 143.969 184.875,146.050 184.774,148.145 184.771 C 150.420 184.768,151.953 184.608,151.953 184.375 C 151.953 184.138,150.260 183.984,147.656 183.984 L 143.359 183.984 143.359 182.899 C 143.359 180.347,145.360 179.321,146.964 181.051 L 147.866 182.024 149.886 180.367 C 150.996 179.456,151.929 178.540,151.958 178.330 C 152.074 177.508,151.288 177.845,149.517 179.377 M255.078 182.031 C 255.078 183.333,255.252 184.375,255.469 184.375 C 255.684 184.375,255.859 183.584,255.859 182.617 L 255.859 180.859 260.156 180.859 C 263.715 180.859,264.453 180.759,264.453 180.273 C 264.453 179.785,263.672 179.688,259.766 179.688 L 255.078 179.688 255.078 182.031 M201.773 185.414 C 204.704 188.647,205.382 188.619,208.078 185.147 C 210.611 181.885,211.778 182.168,209.389 185.465 C 208.128 187.207,205.742 192.201,206.033 192.492 C 206.465 192.924,209.930 192.047,212.001 190.982 C 214.214 189.843,219.257 188.868,226.953 188.091 C 228.350 187.950,229.800 187.747,230.176 187.641 C 230.597 187.522,230.859 187.660,230.859 188.002 C 230.859 188.421,230.028 188.610,227.441 188.779 C 222.603 189.094,217.087 191.178,216.547 192.894 C 214.900 198.132,207.504 207.031,204.797 207.031 C 204.019 207.031,200.434 204.289,198.698 202.366 C 194.695 197.932,191.318 190.234,193.375 190.234 C 194.975 190.234,193.692 189.503,191.032 188.898 C 184.118 187.325,173.438 189.841,173.438 193.042 C 173.438 193.522,176.529 193.422,177.990 192.894 C 179.698 192.276,179.846 192.533,178.966 194.587 C 178.197 196.382,175.788 198.828,174.791 198.828 C 173.861 198.828,171.194 195.797,170.481 193.930 C 167.571 186.310,186.003 183.276,195.596 189.795 C 197.802 191.294,201.210 192.578,202.984 192.578 L 203.874 192.578 202.708 189.980 C 202.067 188.551,200.959 186.573,200.247 185.585 C 197.505 181.781,198.389 181.682,201.773 185.414 M254.683 189.106 C 254.681 189.619,254.570 190.698,254.437 191.504 C 254.276 192.476,254.343 192.969,254.636 192.969 C 254.900 192.969,255.078 192.258,255.078 191.211 C 255.078 189.487,255.103 189.453,256.348 189.458 C 258.922 189.469,259.313 189.752,259.086 191.441 C 258.953 192.438,259.035 192.969,259.324 192.969 C 259.579 192.969,259.766 192.309,259.766 191.406 C 259.766 189.734,259.901 189.656,262.061 190.088 C 263.205 190.317,263.281 190.439,263.281 192.041 C 263.281 192.981,263.457 193.750,263.672 193.750 C 263.888 193.750,264.063 192.727,264.063 191.462 L 264.063 189.175 261.426 188.923 C 259.976 188.785,257.866 188.559,256.738 188.422 C 254.768 188.182,254.687 188.209,254.683 189.106 M146.680 190.001 C 141.241 192.402,144.372 202.123,150.038 200.425 C 152.285 199.752,153.516 198.034,153.516 195.569 C 153.516 191.143,150.204 188.445,146.680 190.001 M151.135 191.630 C 154.498 194.460,152.778 199.609,148.470 199.609 C 147.642 199.609,146.881 199.199,145.911 198.229 C 141.991 194.308,146.919 188.083,151.135 191.630 M254.546 197.513 C 253.550 198.509,253.067 199.776,252.521 202.826 C 252.247 204.355,252.925 204.953,255.203 205.193 C 256.613 205.341,256.286 204.444,254.794 204.070 C 253.371 203.714,253.325 203.648,253.443 202.173 C 253.974 195.585,260.215 196.692,260.621 203.445 C 260.704 204.832,260.909 205.469,261.274 205.469 C 261.890 205.469,261.683 203.842,260.636 200.454 C 259.497 196.767,256.662 195.398,254.546 197.513 M186.639 202.977 C 187.471 203.515,187.874 204.186,188.441 205.980 C 188.647 206.629,188.771 206.605,189.975 205.687 C 192.599 203.685,196.484 205.291,196.484 208.379 C 196.484 209.196,196.853 209.141,197.886 208.171 C 199.431 206.720,201.703 206.721,203.157 208.175 L 204.398 209.416 205.346 208.526 C 206.736 207.220,209.002 207.309,210.482 208.726 L 211.621 209.818 211.883 208.775 C 212.783 205.186,215.906 204.112,218.672 206.440 L 219.826 207.411 220.065 206.219 C 220.842 202.335,225.871 201.596,227.741 205.090 C 228.116 205.792,228.073 205.798,226.699 205.224 C 224.617 204.354,222.960 204.794,221.384 206.636 L 220.075 208.165 218.476 207.614 C 216.328 206.874,214.603 207.391,213.021 209.249 C 211.877 210.593,211.707 210.667,210.756 210.234 C 208.776 209.332,207.080 209.638,205.542 211.177 C 204.758 211.961,204.064 212.388,203.981 212.139 C 203.191 209.769,200.173 208.451,198.009 209.531 C 196.378 210.344,196.299 210.332,195.774 209.179 C 194.770 206.976,191.991 206.141,189.538 207.305 C 188.341 207.873,188.111 207.887,187.952 207.403 C 187.127 204.897,183.826 203.678,181.107 204.876 C 179.880 205.416,181.074 203.613,182.544 202.705 C 183.876 201.882,185.069 201.961,186.639 202.977 M150.684 204.813 C 148.375 205.711,146.485 206.665,146.485 206.934 C 146.484 207.561,146.203 207.633,149.969 206.045 C 154.044 204.326,153.948 203.980,151.162 210.342 C 149.864 213.305,148.852 215.770,148.913 215.819 C 149.283 216.119,157.813 212.699,157.813 212.251 C 157.813 211.552,157.967 211.515,154.276 213.095 C 150.350 214.775,150.366 214.790,151.946 211.043 C 152.650 209.374,153.361 207.568,153.527 207.031 C 153.693 206.494,154.112 205.396,154.459 204.590 C 154.805 203.784,155.042 203.138,154.986 203.153 C 154.929 203.169,152.993 203.916,150.684 204.813 M185.729 206.805 C 187.018 207.344,188.281 209.089,188.281 210.332 C 188.281 211.161,188.565 211.097,189.915 209.961 C 192.234 208.010,195.759 209.341,196.330 212.384 C 196.586 213.748,196.608 213.763,197.222 212.992 C 198.784 211.029,201.447 210.761,203.085 212.402 L 204.156 213.477 205.496 212.566 C 207.178 211.422,209.029 211.632,210.608 213.144 L 211.719 214.209 211.719 213.120 C 211.719 210.171,215.471 208.549,218.127 210.352 C 219.871 211.535,219.922 211.539,219.922 210.508 C 219.922 207.673,224.323 206.111,226.521 208.165 C 228.039 209.582,228.112 210.307,226.660 209.550 C 224.398 208.370,221.019 209.708,220.248 212.090 C 220.091 212.575,219.862 212.561,218.665 211.993 C 216.255 210.849,213.898 211.583,212.673 213.858 L 211.963 215.176 210.407 214.382 C 207.929 213.118,205.266 214.319,204.188 217.188 C 204.038 217.586,203.958 217.502,203.937 216.925 C 203.845 214.401,200.315 212.614,197.795 213.816 C 196.095 214.626,196.218 214.654,195.511 213.288 C 194.388 211.116,191.691 210.366,189.353 211.575 C 188.331 212.104,188.090 212.120,187.943 211.673 C 187.172 209.330,184.007 208.010,181.471 208.975 C 180.170 209.469,180.198 208.993,181.543 207.739 C 183.238 206.159,183.854 206.022,185.729 206.805 M249.847 210.534 C 249.100 212.611,249.052 212.936,249.512 212.810 C 249.673 212.765,250.008 212.137,250.257 211.414 C 250.861 209.657,250.799 209.682,252.699 210.428 C 254.451 211.117,254.495 211.260,253.733 213.867 C 253.607 214.297,253.787 214.033,254.134 213.281 C 254.480 212.529,254.812 211.863,254.872 211.800 C 254.932 211.737,255.721 211.982,256.625 212.344 C 258.324 213.024,258.501 213.768,257.552 216.239 C 257.435 216.546,257.489 216.797,257.673 216.796 C 257.857 216.796,258.296 215.816,258.648 214.620 L 259.289 212.445 255.176 210.519 C 250.199 208.189,250.691 208.188,249.847 210.534 M185.377 219.824 C 185.763 220.415,187.278 222.419,188.743 224.278 C 190.208 226.137,191.406 227.841,191.406 228.064 C 191.406 228.287,191.603 228.591,191.844 228.740 C 192.605 229.210,192.107 221.430,191.297 220.194 C 190.354 218.755,190.360 218.750,192.969 218.750 C 195.181 218.750,196.067 219.266,194.734 219.778 C 193.770 220.148,193.364 222.590,193.362 228.027 C 193.359 233.376,193.156 233.964,191.913 232.216 C 191.527 231.674,189.805 229.343,188.086 227.038 C 186.367 224.732,184.649 222.408,184.267 221.872 C 183.588 220.920,183.575 221.002,183.706 225.490 C 183.822 229.473,183.952 230.234,184.693 231.236 C 185.863 232.818,185.869 232.813,183.008 232.813 C 181.576 232.813,180.469 232.642,180.469 232.422 C 180.469 232.207,180.640 232.031,180.849 232.031 C 182.628 232.031,183.456 220.577,181.741 219.710 C 180.556 219.110,181.039 218.750,183.028 218.750 C 184.395 218.750,184.795 218.933,185.377 219.824 M200.663 219.238 C 201.124 219.850,203.750 226.418,204.060 227.734 C 204.323 228.850,204.962 229.949,205.189 229.676 C 205.441 229.373,209.257 220.578,209.549 219.629 C 209.781 218.873,210.087 218.750,211.745 218.750 C 213.816 218.750,214.203 219.113,212.793 219.732 C 211.797 220.169,211.772 221.457,212.635 228.014 C 213.024 230.971,213.208 231.499,213.965 231.831 C 215.503 232.506,214.922 232.813,212.109 232.813 C 209.311 232.813,208.924 232.643,209.974 231.875 C 210.479 231.505,210.530 230.749,210.303 227.001 C 209.980 221.680,209.868 221.734,206.599 228.809 C 204.153 234.101,204.448 234.058,202.561 229.394 C 201.713 227.300,200.580 224.619,200.042 223.438 L 199.064 221.289 198.789 223.438 C 198.240 227.735,198.379 230.288,199.219 231.357 C 200.323 232.761,200.268 232.813,197.656 232.813 C 195.280 232.813,194.840 232.519,195.897 231.642 C 197.413 230.383,198.793 220.184,197.514 219.693 C 196.319 219.234,196.869 218.750,198.585 218.750 C 199.525 218.750,200.461 218.970,200.663 219.238 M226.725 219.098 C 227.578 219.433,227.821 222.302,227.018 222.569 C 226.768 222.653,226.563 222.459,226.563 222.138 C 226.563 218.998,220.185 218.725,218.295 221.783 C 214.876 227.316,220.527 233.463,226.101 230.276 C 227.549 229.448,227.770 229.407,227.659 229.985 C 227.166 232.547,220.357 233.785,217.941 231.753 C 211.588 226.407,218.815 215.998,226.725 219.098 M218.066 248.458 C 216.609 249.767,216.539 249.934,217.478 249.859 C 217.983 249.819,218.462 250.586,219.333 252.831 C 220.495 255.823,220.992 256.283,222.220 255.505 C 222.660 255.226,222.485 254.486,221.273 251.507 C 219.417 246.944,219.580 247.099,218.066 248.458 M185.873 248.555 C 186.181 248.927,186.021 249.881,185.272 252.127 C 184.284 255.090,184.274 255.210,184.975 255.723 C 185.900 256.399,185.987 256.285,187.410 252.539 C 188.063 250.820,188.720 249.106,188.871 248.730 C 189.110 248.137,188.902 248.047,187.299 248.047 C 185.827 248.047,185.537 248.150,185.873 248.555 M194.293 250.915 C 192.085 252.813,193.032 255.077,196.387 255.924 C 197.300 256.154,198.047 256.476,198.047 256.639 C 198.047 257.392,196.762 257.882,195.127 257.752 C 193.264 257.604,192.750 257.949,194.238 258.348 C 197.851 259.316,201.172 257.086,201.172 253.693 C 201.172 250.415,196.886 248.684,194.293 250.915 M207.031 250.684 C 205.359 251.520,204.860 253.430,206.221 253.786 C 207.195 254.040,207.198 254.069,206.402 255.284 C 204.770 257.775,207.333 259.601,211.022 258.577 C 213.750 257.819,214.768 255.170,212.695 254.226 C 211.736 253.789,211.367 253.125,212.083 253.125 C 212.283 253.125,212.563 252.761,212.704 252.316 C 213.361 250.246,209.901 249.251,207.031 250.684 M198.220 251.259 C 199.351 252.874,198.928 255.914,197.619 255.572 C 195.490 255.015,195.174 250.391,197.266 250.391 C 197.456 250.391,197.886 250.781,198.220 251.259 M210.363 251.599 C 210.985 253.559,209.377 254.638,208.037 253.157 C 207.509 252.574,207.452 252.237,207.777 251.629 C 208.515 250.251,209.930 250.234,210.363 251.599 M211.367 255.541 C 211.839 256.423,210.911 258.203,209.980 258.203 C 208.352 258.203,207.677 255.882,209.029 254.934 C 209.991 254.261,210.793 254.469,211.367 255.541 " stroke="none" fill="#bb2d34" fill-rule="evenodd"></path><path id="path1" d="M194.727 93.154 C 166.027 98.462,143.851 124.006,136.559 160.156 C 131.547 184.999,137.483 216.645,150.699 235.547 C 151.676 236.943,153.192 239.138,154.069 240.423 C 160.564 249.941,175.244 260.934,186.328 264.578 C 195.048 267.444,208.552 268.045,216.852 265.936 C 244.980 258.787,265.781 232.558,272.147 196.210 C 273.018 191.240,273.140 169.548,272.325 164.648 C 264.500 117.613,230.727 86.497,194.727 93.154 M208.984 93.372 C 255.245 98.226,284.366 157.068,267.555 211.719 C 265.881 217.161,265.424 218.342,262.944 223.633 C 242.308 267.663,195.902 280.337,164.453 250.532 C 163.057 249.209,161.545 247.800,161.093 247.403 C 160.642 247.005,158.954 245.098,157.342 243.164 C 137.658 219.547,130.556 183.863,139.299 152.503 C 140.072 149.730,140.841 146.934,141.008 146.289 C 141.551 144.187,143.032 140.515,145.181 135.938 C 156.168 112.542,175.200 96.782,196.094 93.779 C 202.232 92.896,203.940 92.842,208.984 93.372 M198.438 96.905 C 173.875 99.592,153.495 118.589,143.364 148.242 C 141.938 152.418,141.634 153.618,140.445 159.766 C 138.001 172.408,137.920 186.401,140.219 198.633 C 140.623 200.781,141.075 203.330,141.223 204.297 C 141.813 208.135,146.026 219.617,148.891 225.195 C 165.096 256.745,195.486 270.651,223.438 259.306 C 261.548 243.839,279.818 188.333,261.891 142.482 C 259.945 137.505,258.955 135.508,254.869 128.320 C 254.258 127.246,252.693 124.982,251.391 123.289 C 250.089 121.596,248.688 119.750,248.277 119.187 C 237.737 104.732,215.947 94.990,198.438 96.905 M206.036 99.772 C 208.325 100.728,208.608 102.729,206.746 104.787 C 206.171 105.422,206.235 105.635,207.589 107.601 C 208.907 109.515,209.130 110.547,208.226 110.547 C 207.905 110.547,204.688 105.832,204.688 105.362 C 204.688 105.225,205.127 104.674,205.664 104.137 C 207.217 102.584,206.890 101.252,204.797 100.611 C 203.936 100.347,203.929 100.383,203.820 105.344 C 203.724 109.742,203.629 110.358,203.027 110.473 C 202.402 110.593,202.344 110.123,202.344 104.911 L 202.344 99.219 203.528 99.219 C 204.180 99.219,205.308 99.468,206.036 99.772 M196.859 105.102 C 199.730 109.365,200.240 110.547,199.212 110.547 C 199.019 110.547,198.412 109.780,197.863 108.844 L 196.865 107.140 194.366 107.738 C 191.718 108.372,191.406 108.775,191.406 111.572 C 191.406 112.594,190.727 112.830,190.381 111.929 C 190.028 111.008,192.866 99.890,193.374 100.204 C 193.551 100.313,195.119 102.518,196.859 105.102 M214.656 101.660 C 212.727 112.657,212.940 111.841,212.135 111.344 C 211.681 111.063,211.694 110.506,212.219 107.752 C 212.561 105.959,212.956 103.569,213.098 102.441 C 213.309 100.756,213.490 100.391,214.117 100.391 C 214.762 100.391,214.845 100.585,214.656 101.660 M192.965 104.395 C 192.731 105.308,192.466 106.274,192.376 106.543 C 192.177 107.136,192.706 107.154,194.634 106.619 L 196.104 106.210 194.908 104.472 C 193.449 102.351,193.487 102.353,192.965 104.395 M224.190 108.691 C 224.660 111.753,225.134 114.565,225.244 114.941 C 225.387 115.431,225.222 115.625,224.664 115.625 C 224.012 115.625,223.840 115.274,223.617 113.488 L 223.350 111.352 221.153 110.529 L 218.955 109.707 217.641 111.142 C 215.993 112.940,214.935 112.450,216.442 110.586 C 218.382 108.185,222.861 103.182,223.094 103.154 C 223.227 103.138,223.721 105.630,224.190 108.691 M183.805 106.934 C 184.618 107.954,186.169 109.711,187.254 110.837 C 188.710 112.349,189.111 112.999,188.787 113.322 C 188.195 113.915,187.859 113.656,185.175 110.537 L 182.856 107.843 182.637 109.488 C 182.517 110.393,182.375 112.012,182.322 113.086 C 182.203 115.511,181.890 115.521,179.282 113.184 C 176.758 110.922,176.915 110.714,177.494 115.553 C 177.759 117.767,177.833 119.666,177.659 119.773 C 176.957 120.207,176.643 119.399,176.388 116.510 C 176.241 114.841,175.950 112.356,175.740 110.985 C 175.250 107.778,175.194 107.787,178.356 110.581 L 181.055 112.965 181.301 111.853 C 181.437 111.242,181.569 109.468,181.594 107.910 C 181.649 104.572,181.853 104.482,183.805 106.934 M221.024 107.215 L 219.586 108.815 221.340 109.446 L 223.093 110.076 222.826 107.870 C 222.504 105.215,222.742 105.302,221.024 107.215 M232.815 109.082 C 232.820 110.054,234.390 120.067,234.565 120.242 C 234.663 120.340,234.907 119.992,235.106 119.468 C 235.816 117.600,238.483 113.793,238.965 113.959 C 239.746 114.228,239.565 114.713,237.568 117.693 C 236.531 119.241,235.269 121.253,234.764 122.164 C 233.570 124.315,233.620 124.425,232.632 117.511 L 231.783 111.567 230.605 113.303 C 229.957 114.258,229.014 115.786,228.509 116.699 C 228.004 117.612,227.457 118.359,227.295 118.359 C 226.301 118.359,226.818 117.034,229.359 113.067 C 232.084 108.814,232.809 107.978,232.815 109.082 M211.774 112.688 C 213.324 113.212,215.395 114.147,216.378 114.766 C 226.981 121.445,229.103 122.994,232.627 126.633 C 236.320 130.447,240.128 135.285,241.597 138.029 C 246.329 146.869,247.118 148.709,248.993 155.273 C 253.872 172.359,253.856 187.455,248.939 204.683 C 247.496 209.738,245.579 214.613,243.908 217.476 C 243.376 218.387,242.503 220.005,241.967 221.071 C 241.432 222.137,239.922 224.454,238.612 226.221 C 210.528 264.098,164.533 245.661,155.659 192.969 C 152.437 173.835,157.763 148.451,167.872 134.766 C 174.653 125.585,181.540 119.646,188.905 116.627 C 190.173 116.107,192.178 115.145,193.359 114.488 C 199.214 111.236,205.630 110.609,211.774 112.688 M200.977 112.656 C 200.762 112.734,199.487 113.111,198.145 113.492 C 195.794 114.160,194.924 114.844,196.424 114.844 C 196.820 114.844,198.182 115.520,199.451 116.347 C 212.287 124.709,207.817 150.364,193.519 150.387 C 186.444 150.398,180.121 142.424,180.063 133.414 C 180.043 130.396,179.546 131.374,177.985 137.506 C 175.262 148.197,176.181 160.213,180.405 169.141 C 184.430 177.649,190.388 183.370,197.925 185.963 L 199.990 186.673 198.628 184.650 C 196.040 180.807,198.974 180.738,202.048 184.570 C 204.443 187.557,204.995 187.641,206.896 185.312 C 209.317 182.345,209.703 182.031,210.938 182.031 C 212.350 182.031,212.403 182.468,211.190 184.108 C 209.606 186.252,209.579 186.389,210.807 186.090 C 217.657 184.426,226.050 176.344,228.998 168.573 C 231.913 160.893,232.813 156.460,232.813 149.787 C 232.813 133.101,224.450 118.478,212.259 113.847 C 209.778 112.905,202.422 112.128,200.977 112.656 M166.016 117.942 C 166.016 118.142,167.430 119.988,169.158 122.044 L 172.301 125.781 166.800 125.781 L 161.300 125.781 163.877 128.737 C 166.267 131.477,166.722 132.410,165.796 132.672 C 165.450 132.770,159.343 125.488,159.060 124.640 C 158.975 124.387,160.775 124.202,164.014 124.133 L 169.102 124.023 166.751 121.197 C 165.458 119.642,164.510 118.192,164.645 117.974 C 164.952 117.477,166.016 117.452,166.016 117.942 M245.999 121.973 C 245.901 122.241,245.153 124.972,244.336 128.040 C 242.677 134.276,241.164 135.784,242.357 130.012 C 242.629 128.694,242.523 128.438,241.027 126.815 L 239.400 125.050 237.669 125.793 C 236.717 126.201,235.911 126.365,235.879 126.158 C 235.847 125.951,235.803 125.581,235.781 125.337 C 235.745 124.928,244.432 121.555,245.647 121.506 C 245.939 121.494,246.097 121.704,245.999 121.973 M242.262 123.872 L 240.579 124.597 241.286 125.542 C 242.771 127.529,243.246 127.493,243.759 125.351 C 244.332 122.966,244.342 122.976,242.262 123.872 M158.205 131.838 C 158.474 132.162,158.810 132.997,158.953 133.694 C 159.229 135.042,159.785 135.154,163.020 134.517 C 164.006 134.323,164.113 134.399,163.997 135.216 C 163.796 136.637,158.203 136.868,158.203 135.456 C 158.203 133.255,156.457 132.215,155.078 133.594 C 153.964 134.708,154.015 134.800,156.934 136.929 C 160.815 139.760,161.583 140.526,161.062 141.047 C 160.740 141.369,159.820 140.889,157.559 139.220 C 152.591 135.552,152.719 135.706,153.420 134.250 C 154.748 131.491,156.983 130.365,158.205 131.838 M252.200 132.063 C 252.924 132.510,253.516 133.027,253.516 133.212 C 253.516 133.973,252.683 133.970,251.647 133.204 C 249.868 131.889,249.219 132.453,249.219 135.315 C 249.219 138.880,247.436 139.788,244.633 137.650 C 242.811 136.261,243.521 135.667,245.638 136.810 C 247.667 137.905,248.032 137.531,248.041 134.355 C 248.050 131.142,249.456 130.367,252.200 132.063 M151.172 140.968 C 151.172 141.157,150.905 141.948,150.580 142.728 L 149.988 144.145 151.263 144.922 C 152.985 145.972,153.377 145.908,153.652 144.531 C 153.790 143.844,154.133 143.359,154.482 143.359 C 155.214 143.359,155.216 143.445,154.519 145.114 C 153.965 146.440,153.972 146.461,155.248 147.250 C 157.011 148.340,157.221 148.277,157.813 146.484 C 158.096 145.625,158.564 144.922,158.852 144.922 C 159.599 144.922,159.511 145.409,158.331 147.815 L 157.286 149.944 155.499 148.994 C 152.459 147.377,148.713 145.127,148.720 144.922 C 148.777 143.196,151.172 139.333,151.172 140.968 M257.312 145.668 C 259.319 147.122,260.789 149.133,260.243 149.679 C 259.971 149.951,259.232 149.444,257.923 148.086 C 253.652 143.655,249.320 147.475,252.301 153.045 C 252.762 153.907,252.609 154.688,251.977 154.688 C 251.565 154.688,250.904 153.021,250.411 150.740 C 249.312 145.657,253.276 142.745,257.312 145.668 M151.066 152.770 C 155.710 154.102,155.984 154.245,155.476 155.066 C 155.172 155.559,154.868 155.551,153.150 155.001 C 150.840 154.263,151.002 154.102,150.399 157.727 C 149.815 161.235,149.938 161.574,151.924 161.909 C 153.627 162.197,154.101 162.602,153.763 163.481 C 153.603 163.899,153.284 163.948,152.459 163.683 C 151.859 163.489,149.829 162.875,147.949 162.317 C 145.154 161.488,144.531 161.163,144.531 160.534 C 144.531 159.612,144.897 159.582,146.740 160.352 C 147.511 160.674,148.273 160.938,148.432 160.938 C 148.664 160.938,150.001 155.221,150.000 154.230 C 150.000 154.086,149.429 153.846,148.730 153.696 C 146.853 153.293,146.094 152.798,146.345 152.142 C 146.623 151.420,146.135 151.355,151.066 152.770 M260.507 155.779 C 263.195 157.763,263.760 162.344,261.608 164.693 C 258.212 168.398,253.125 165.754,253.125 160.284 C 253.125 155.758,257.151 153.301,260.507 155.779 M255.819 157.142 C 252.748 159.208,254.223 164.844,257.836 164.844 C 262.187 164.844,263.345 158.083,259.239 156.652 C 257.626 156.089,257.321 156.133,255.819 157.142 M144.796 165.723 C 144.680 166.206,144.471 167.232,144.331 168.003 L 144.078 169.404 147.332 169.859 C 149.122 170.109,151.069 170.313,151.660 170.313 C 152.546 170.313,152.734 170.484,152.734 171.289 C 152.734 172.441,152.999 172.414,148.828 171.680 C 143.615 170.761,143.750 170.720,143.750 173.242 C 143.750 174.891,143.614 175.391,143.164 175.391 C 142.465 175.391,142.467 175.443,142.998 170.943 C 143.694 165.047,143.741 164.844,144.396 164.844 C 144.831 164.844,144.946 165.096,144.796 165.723 M264.063 170.672 C 264.063 171.531,263.433 171.702,258.887 172.080 L 255.859 172.332 255.859 174.252 C 255.859 175.698,255.715 176.172,255.273 176.172 C 254.818 176.172,254.688 175.651,254.688 173.828 C 254.688 172.539,254.682 171.353,254.676 171.191 C 254.664 170.912,260.113 170.098,262.793 169.978 C 263.804 169.933,264.063 170.075,264.063 170.672 M152.234 178.157 C 152.280 178.462,151.350 179.502,150.166 180.469 C 147.663 182.513,147.266 182.706,147.266 181.877 C 147.266 180.054,144.299 179.796,143.909 181.586 C 143.786 182.153,143.617 182.837,143.534 183.105 C 143.420 183.476,144.460 183.594,147.864 183.594 C 152.083 183.594,152.344 183.639,152.344 184.375 C 152.344 185.115,152.083 185.156,147.461 185.156 L 142.578 185.156 142.579 183.301 C 142.580 179.412,144.679 177.456,146.692 179.469 C 147.839 180.616,148.327 180.486,150.177 178.543 C 151.354 177.306,152.082 177.169,152.234 178.157 M264.844 180.332 L 264.844 181.367 260.569 181.108 L 256.293 180.848 256.174 182.706 C 256.084 184.106,255.887 184.595,255.371 184.693 C 254.618 184.836,254.477 183.553,254.938 180.762 L 255.180 179.297 260.012 179.297 L 264.844 179.297 264.844 180.332 M198.828 183.056 C 198.828 183.176,199.521 184.269,200.368 185.485 C 201.950 187.756,204.168 192.446,203.823 192.791 C 203.091 193.523,197.254 191.312,194.531 189.271 C 187.876 184.282,170.313 186.363,170.313 192.139 C 170.313 193.797,171.923 196.633,173.626 197.972 C 175.344 199.323,178.307 196.995,179.120 193.652 C 179.425 192.399,179.428 192.400,177.599 193.164 C 174.801 194.333,172.690 193.876,173.709 192.322 C 175.959 188.888,185.371 187.095,191.753 188.886 C 194.256 189.589,195.200 190.234,193.723 190.234 C 192.938 190.234,192.890 190.368,193.132 191.878 C 193.908 196.731,198.028 202.467,203.426 206.210 L 204.704 207.096 206.361 206.125 C 209.667 204.187,214.007 198.759,215.824 194.287 C 217.109 191.125,221.531 188.791,226.547 188.627 C 227.307 188.602,227.616 188.500,227.232 188.400 C 225.429 187.931,214.660 189.905,211.914 191.208 C 207.937 193.094,205.664 193.408,206.012 192.022 C 206.389 190.519,208.023 187.195,209.437 185.053 C 211.162 182.442,210.574 182.336,208.535 184.891 C 205.305 188.940,204.290 189.010,201.545 185.373 C 200.154 183.531,198.828 182.400,198.828 183.056 M228.813 188.167 C 229.299 188.260,230.002 188.257,230.376 188.159 C 230.749 188.061,230.352 187.985,229.492 187.989 C 228.633 187.993,228.327 188.073,228.813 188.167 M259.480 188.466 C 261.794 188.774,263.815 189.105,263.972 189.201 C 264.522 189.539,264.035 194.141,263.449 194.141 C 263.031 194.141,262.960 193.741,263.144 192.403 C 263.366 190.780,263.316 190.649,262.386 190.415 C 260.582 189.962,259.971 190.313,259.841 191.877 C 259.757 192.889,259.565 193.258,259.198 193.117 C 258.835 192.978,258.736 192.459,258.875 191.425 L 259.075 189.934 257.370 189.757 C 255.285 189.539,255.420 189.426,255.175 191.597 C 255.054 192.674,254.799 193.330,254.537 193.240 C 254.298 193.159,254.134 192.756,254.174 192.347 C 254.424 189.758,254.773 187.892,255.004 187.898 C 255.152 187.902,257.166 188.158,259.480 188.466 M150.269 189.636 C 155.502 191.136,154.481 200.787,149.091 200.779 C 143.067 200.769,141.343 191.620,146.983 189.584 C 148.219 189.138,148.549 189.143,150.269 189.636 M146.211 191.603 C 144.955 192.482,144.368 194.610,144.920 196.283 C 146.413 200.806,152.734 199.863,152.734 195.117 C 152.734 191.828,148.865 189.743,146.211 191.603 M258.398 196.813 C 260.690 198.213,263.001 205.859,261.133 205.859 C 260.717 205.859,260.546 205.435,260.545 204.395 C 260.535 197.706,254.489 195.494,253.634 201.866 C 253.426 203.420,253.458 203.478,254.736 203.810 C 255.476 204.001,256.109 204.440,256.180 204.810 C 256.332 205.596,255.387 205.672,253.524 205.023 L 252.244 204.576 252.492 202.206 C 252.973 197.603,255.666 195.143,258.398 196.813 M181.733 203.691 L 180.273 205.039 182.031 204.420 C 184.313 203.616,186.311 204.342,187.538 206.423 C 188.306 207.724,188.403 207.771,189.186 207.223 C 190.922 206.007,193.318 206.458,195.122 208.341 C 196.579 209.861,196.828 209.985,197.474 209.513 C 199.464 208.057,203.906 209.747,203.906 211.960 C 203.906 212.477,204.235 212.293,205.206 211.233 C 205.921 210.453,207.007 209.689,207.619 209.535 C 208.619 209.284,209.165 209.399,211.388 210.331 C 211.848 210.524,212.227 210.272,212.710 209.455 C 214.044 207.197,216.629 206.440,218.921 207.635 C 219.979 208.186,220.100 208.178,220.456 207.535 C 221.829 205.055,224.769 203.976,227.076 205.105 C 227.608 205.365,227.380 204.997,226.471 204.128 C 224.263 202.020,220.313 203.314,220.313 206.146 C 220.313 207.361,219.945 207.414,218.468 206.412 C 215.820 204.614,212.109 205.984,212.109 208.759 C 212.109 210.008,211.928 210.011,210.476 208.789 C 208.863 207.432,206.580 207.447,205.203 208.824 C 204.241 209.786,203.544 209.641,203.522 208.476 C 203.492 206.948,198.476 207.063,197.647 208.611 C 197.048 209.730,196.604 209.548,196.327 208.070 C 195.754 205.017,192.435 203.808,190.146 205.818 C 188.467 207.292,188.281 207.312,188.281 206.016 C 188.281 202.876,184.188 201.424,181.733 203.691 M155.337 203.223 C 155.219 203.491,154.664 204.854,154.103 206.250 C 153.543 207.646,152.576 209.976,151.955 211.426 C 151.334 212.876,150.890 214.063,150.969 214.063 C 151.048 214.063,152.401 213.548,153.974 212.920 C 157.733 211.419,158.008 211.374,158.008 212.260 C 158.008 212.850,157.052 213.335,153.223 214.692 C 150.591 215.624,148.438 216.313,148.438 216.224 C 148.438 216.135,149.494 213.651,150.784 210.703 C 152.075 207.756,153.086 205.300,153.030 205.247 C 152.975 205.193,151.470 205.738,149.686 206.458 C 146.991 207.547,146.405 207.670,146.220 207.188 C 145.914 206.390,145.895 206.401,150.391 204.688 C 152.589 203.849,154.485 203.067,154.603 202.949 C 155.014 202.538,155.551 202.738,155.337 203.223 M182.121 207.247 C 180.652 208.276,180.196 209.471,181.541 208.769 C 183.684 207.651,186.559 208.671,187.546 210.900 L 188.034 212.002 189.736 211.249 C 192.216 210.152,195.314 211.528,196.174 214.108 C 196.284 214.437,196.641 214.369,197.391 213.877 C 199.725 212.348,203.859 214.022,203.931 216.526 C 203.956 217.375,203.959 217.375,204.285 216.570 C 205.271 214.132,208.254 213.072,210.647 214.309 C 211.669 214.838,211.909 214.855,212.054 214.407 C 212.824 212.022,216.485 210.642,218.735 211.888 C 219.645 212.392,219.780 212.328,221.210 210.703 C 222.828 208.865,224.995 208.384,227.076 209.401 C 227.608 209.662,227.380 209.294,226.471 208.425 C 223.964 206.031,219.922 207.690,219.922 211.113 C 219.922 211.903,219.374 211.884,218.700 211.072 C 216.461 208.372,211.719 210.111,211.719 213.633 C 211.719 214.332,211.135 214.128,210.156 213.086 C 208.901 211.750,206.733 211.754,205.138 213.096 C 204.023 214.034,203.953 214.045,203.726 213.329 C 203.110 211.389,199.231 211.019,197.609 212.745 L 196.720 213.692 196.105 212.022 C 194.968 208.935,192.082 208.199,189.531 210.346 L 188.377 211.317 188.138 210.125 C 187.580 207.332,184.264 205.746,182.121 207.247 M255.130 210.205 C 256.798 211.038,258.337 211.719,258.550 211.719 C 259.329 211.719,259.391 212.519,258.776 214.635 C 258.392 215.955,257.930 216.797,257.589 216.797 C 256.899 216.797,256.898 216.820,257.644 215.035 C 258.316 213.427,258.227 213.256,256.312 212.500 C 254.896 211.941,254.316 212.308,254.303 213.770 C 254.300 214.146,254.014 214.453,253.669 214.453 C 253.222 214.453,253.124 214.256,253.329 213.770 C 254.098 211.940,254.001 211.397,252.793 210.773 C 251.087 209.890,250.867 209.975,250.344 211.719 C 250.087 212.578,249.640 213.281,249.352 213.281 C 248.649 213.281,248.686 212.942,249.667 210.378 C 250.636 207.844,250.412 207.851,255.130 210.205 M223.372 219.330 C 225.223 219.908,226.563 220.919,226.563 221.740 C 226.563 222.029,226.738 222.266,226.953 222.266 C 227.168 222.266,227.344 221.585,227.344 220.754 C 227.344 219.107,226.512 218.725,223.047 218.780 L 221.680 218.802 223.372 219.330 M181.980 219.560 C 183.328 220.100,183.126 229.324,181.724 231.220 C 181.249 231.864,180.859 232.441,180.859 232.504 C 180.859 232.566,181.799 232.559,182.948 232.487 L 185.039 232.356 184.316 230.939 C 183.337 229.018,183.219 220.687,184.182 221.487 C 184.506 221.755,184.989 222.383,185.257 222.882 C 185.524 223.381,187.061 225.514,188.672 227.622 C 190.283 229.729,191.900 231.891,192.265 232.426 C 192.907 233.369,192.928 233.265,192.948 229.057 C 192.974 223.621,193.483 220.729,194.575 219.824 C 195.377 219.159,195.334 219.141,192.914 219.147 C 191.548 219.150,190.609 219.282,190.828 219.440 C 191.662 220.040,192.209 222.062,192.448 225.423 C 192.713 229.160,192.418 229.725,191.190 227.832 C 190.807 227.241,189.162 225.044,187.534 222.949 L 184.575 219.141 182.815 219.165 C 181.304 219.187,181.186 219.243,181.980 219.560 M197.559 219.543 C 198.568 219.949,198.569 219.977,197.897 225.195 C 197.387 229.153,196.472 232.031,195.723 232.031 C 195.497 232.031,195.313 232.163,195.313 232.324 C 195.313 232.485,196.367 232.617,197.656 232.617 C 200.333 232.617,200.248 232.670,199.219 231.641 C 198.370 230.792,198.186 226.958,198.796 222.852 L 199.087 220.898 199.778 222.461 C 201.559 226.483,203.653 231.539,203.904 232.422 C 204.145 233.267,204.536 232.675,206.807 228.033 C 209.987 221.531,210.029 221.499,210.329 225.291 C 210.461 226.957,210.651 228.967,210.753 229.757 C 210.876 230.713,210.744 231.388,210.358 231.774 C 209.846 232.286,210.050 232.368,212.117 232.485 C 213.402 232.558,214.454 232.485,214.454 232.324 C 214.453 232.163,214.200 232.031,213.890 232.031 C 213.025 232.031,212.914 231.644,212.304 226.488 C 211.548 220.110,211.554 219.963,212.598 219.543 C 213.317 219.254,213.150 219.186,211.674 219.165 C 209.876 219.141,209.870 219.145,209.169 220.996 C 207.280 225.982,205.001 230.283,204.668 229.492 C 204.487 229.063,203.502 226.558,202.478 223.926 L 200.616 219.141 198.648 219.165 C 197.072 219.185,196.855 219.261,197.559 219.543 M219.301 219.879 C 213.450 223.448,215.095 232.828,221.569 232.809 C 223.063 232.804,226.496 231.300,227.340 230.280 C 227.826 229.693,227.630 229.725,226.169 230.475 C 221.535 232.849,217.383 230.354,217.383 225.195 C 217.383 222.335,218.150 220.942,220.340 219.825 C 221.077 219.449,221.416 219.142,221.094 219.143 C 220.771 219.143,219.965 219.475,219.301 219.879 M221.383 251.270 C 223.057 255.485,223.059 255.657,221.449 256.054 C 220.486 256.291,220.383 256.157,219.339 253.295 C 218.605 251.283,218.003 250.224,217.520 250.098 C 216.493 249.829,216.617 249.417,218.066 248.275 C 219.776 246.927,219.593 246.763,221.383 251.270 M189.363 248.046 C 189.305 248.179,188.569 250.079,187.727 252.269 C 186.185 256.281,185.856 256.653,184.639 255.762 C 184.017 255.306,184.041 255.067,185.005 252.202 C 185.803 249.829,185.926 249.062,185.547 248.828 C 184.638 248.267,185.472 247.830,187.477 247.818 C 188.572 247.811,189.421 247.913,189.363 248.046 M200.465 251.128 C 203.489 254.512,199.376 259.943,194.752 258.671 C 192.940 258.173,192.977 257.351,194.798 257.643 C 195.987 257.833,196.515 257.713,197.276 257.080 L 198.242 256.276 196.807 256.263 C 194.864 256.245,192.969 254.664,192.969 253.060 C 192.969 249.681,198.011 248.381,200.465 251.128 M212.022 250.217 C 212.936 250.858,213.198 252.498,212.459 252.955 C 212.180 253.127,212.389 253.558,213.045 254.166 C 214.991 255.970,213.862 258.196,210.634 258.921 C 207.041 259.728,204.281 257.103,206.447 254.937 C 206.969 254.415,206.950 254.324,206.271 254.108 C 205.194 253.766,204.897 252.484,205.634 251.359 C 206.677 249.767,210.424 249.098,212.022 250.217 M196.563 251.250 C 195.758 252.054,195.994 254.183,196.962 254.861 C 198.258 255.768,198.438 255.632,198.438 253.743 C 198.438 250.981,197.748 250.064,196.563 251.250 M208.281 251.250 C 207.577 251.954,207.717 253.046,208.568 253.502 C 209.586 254.047,209.674 254.026,210.156 253.125 C 210.955 251.632,209.427 250.104,208.281 251.250 M208.818 255.436 C 207.547 256.841,209.519 258.684,210.859 257.344 C 211.563 256.640,211.424 255.548,210.573 255.092 C 209.591 254.566,209.609 254.563,208.818 255.436 " stroke="none" fill="#fbfbfb" fill-rule="evenodd"></path><path id="path2" d="M202.450 108.203 C 202.450 109.170,202.526 109.565,202.619 109.082 C 202.713 108.599,202.713 107.808,202.619 107.324 C 202.526 106.841,202.450 107.236,202.450 108.203 M245.703 109.888 C 245.703 109.955,246.274 110.526,246.973 111.157 L 248.242 112.305 247.095 111.035 C 246.025 109.852,245.703 109.586,245.703 109.888 M186.328 110.278 C 186.328 110.346,186.899 110.917,187.598 111.548 L 188.867 112.695 187.720 111.426 C 186.650 110.242,186.328 109.977,186.328 110.278 M203.613 112.389 C 204.204 112.479,205.171 112.479,205.762 112.389 C 206.353 112.300,205.869 112.226,204.688 112.226 C 203.506 112.226,203.022 112.300,203.613 112.389 M171.034 124.695 C 171.526 125.323,171.213 125.376,166.347 125.489 L 161.133 125.611 166.504 125.696 C 171.811 125.780,172.527 125.607,171.191 124.560 C 170.574 124.076,170.559 124.089,171.034 124.695 M143.035 171.484 C 143.055 172.499,143.670 174.166,143.684 173.242 C 143.690 172.813,143.544 172.109,143.359 171.680 C 143.154 171.201,143.028 171.125,143.035 171.484 M271.966 173.047 C 271.966 173.799,272.046 174.106,272.144 173.730 C 272.243 173.354,272.243 172.739,272.144 172.363 C 272.046 171.987,271.966 172.295,271.966 173.047 M134.524 179.883 C 134.525 182.461,134.588 183.465,134.665 182.114 C 134.741 180.762,134.740 178.653,134.663 177.426 C 134.586 176.199,134.523 177.305,134.524 179.883 M135.668 179.492 C 135.670 180.781,135.743 181.262,135.830 180.559 C 135.917 179.857,135.915 178.803,135.826 178.216 C 135.737 177.629,135.666 178.203,135.668 179.492 M150.171 178.613 L 149.023 179.883 150.389 178.711 C 151.140 178.066,151.828 177.495,151.919 177.441 C 152.009 177.388,151.911 177.344,151.701 177.344 C 151.490 177.344,150.802 177.915,150.171 178.613 M185.547 177.857 C 185.547 177.924,186.118 178.495,186.816 179.126 L 188.086 180.273 186.939 179.004 C 185.869 177.821,185.547 177.555,185.547 177.857 M252.450 179.688 C 252.450 180.654,252.526 181.050,252.619 180.566 C 252.713 180.083,252.713 179.292,252.619 178.809 C 252.526 178.325,252.450 178.721,252.450 179.688 M147.949 183.878 C 153.216 184.054,153.089 184.703,147.754 184.872 L 143.555 185.005 147.852 184.983 C 151.401 184.965,152.148 184.859,152.148 184.375 C 152.148 183.893,151.422 183.785,148.047 183.766 L 143.945 183.744 147.949 183.878 M271.966 186.719 C 271.966 187.471,272.046 187.778,272.144 187.402 C 272.243 187.026,272.243 186.411,272.144 186.035 C 272.046 185.659,271.966 185.967,271.966 186.719 M173.926 193.629 C 174.302 193.727,174.917 193.727,175.293 193.629 C 175.669 193.530,175.361 193.450,174.609 193.450 C 173.857 193.450,173.550 193.530,173.926 193.629 M193.115 228.320 C 193.116 230.684,193.180 231.600,193.258 230.357 C 193.336 229.114,193.335 227.180,193.256 226.060 C 193.178 224.940,193.114 225.957,193.115 228.320 M202.644 263.564 C 203.346 263.651,204.400 263.649,204.987 263.560 C 205.574 263.471,205.000 263.400,203.711 263.402 C 202.422 263.404,201.942 263.477,202.644 263.564 " stroke="none" fill="#cf7175" fill-rule="evenodd"></path><path id="path3" d="M203.622 101.953 C 203.622 102.920,203.698 103.315,203.791 102.832 C 203.884 102.349,203.884 101.558,203.791 101.074 C 203.698 100.591,203.622 100.986,203.622 101.953 M202.455 104.883 C 202.458 105.957,202.534 106.350,202.624 105.756 C 202.714 105.163,202.711 104.284,202.619 103.803 C 202.526 103.323,202.453 103.809,202.455 104.883 M163.061 114.551 L 161.914 115.820 163.184 114.673 C 164.367 113.604,164.633 113.281,164.331 113.281 C 164.264 113.281,163.692 113.853,163.061 114.551 M166.504 124.499 C 167.095 124.588,168.062 124.588,168.652 124.499 C 169.243 124.409,168.760 124.336,167.578 124.336 C 166.396 124.336,165.913 124.409,166.504 124.499 M232.924 149.414 C 232.927 150.488,233.003 150.881,233.093 150.288 C 233.183 149.694,233.180 148.815,233.087 148.334 C 232.995 147.854,232.921 148.340,232.924 149.414 M135.638 182.813 C 135.638 183.564,135.718 183.872,135.816 183.496 C 135.914 183.120,135.914 182.505,135.816 182.129 C 135.718 181.753,135.638 182.061,135.638 182.813 M192.305 226.953 C 192.305 228.135,192.378 228.618,192.467 228.027 C 192.557 227.437,192.557 226.470,192.467 225.879 C 192.378 225.288,192.305 225.771,192.305 226.953 " stroke="none" fill="#d48388" fill-rule="evenodd"></path><path id="path4" d="M201.871 92.477 C 203.222 92.554,205.331 92.553,206.558 92.476 C 207.785 92.398,206.680 92.336,204.102 92.337 C 201.523 92.337,200.520 92.401,201.871 92.477 M202.441 93.253 C 203.247 93.338,204.565 93.338,205.371 93.253 C 206.177 93.169,205.518 93.100,203.906 93.100 C 202.295 93.100,201.636 93.169,202.441 93.253 M199.707 96.754 C 200.083 96.852,200.698 96.852,201.074 96.754 C 201.450 96.655,201.143 96.575,200.391 96.575 C 199.639 96.575,199.331 96.655,199.707 96.754 M206.348 96.754 C 206.724 96.852,207.339 96.852,207.715 96.754 C 208.091 96.655,207.783 96.575,207.031 96.575 C 206.279 96.575,205.972 96.655,206.348 96.754 M220.874 105.566 L 219.727 106.836 220.996 105.689 C 221.694 105.058,222.266 104.486,222.266 104.419 C 222.266 104.117,221.943 104.383,220.874 105.566 M203.647 107.422 C 203.647 109.033,203.716 109.692,203.800 108.887 C 203.884 108.081,203.884 106.763,203.800 105.957 C 203.716 105.151,203.647 105.811,203.647 107.422 M181.686 105.957 C 181.722 106.663,181.768 106.696,181.916 106.123 C 182.094 105.433,182.127 105.433,182.944 106.123 L 183.789 106.836 183.045 105.957 C 182.636 105.474,182.152 105.078,181.971 105.078 C 181.789 105.078,181.661 105.474,181.686 105.957 M160.718 111.426 L 159.570 112.695 160.840 111.548 C 161.538 110.917,162.109 110.346,162.109 110.278 C 162.109 109.977,161.787 110.242,160.718 111.426 M203.613 111.608 C 204.204 111.697,205.171 111.697,205.762 111.608 C 206.353 111.518,205.869 111.445,204.688 111.445 C 203.506 111.445,203.022 111.518,203.613 111.608 M158.984 124.586 C 158.984 124.788,159.187 125.079,159.435 125.233 C 159.709 125.402,159.781 125.340,159.618 125.076 C 159.431 124.774,160.334 124.601,162.584 124.510 L 165.820 124.378 162.402 124.298 C 160.471 124.253,158.984 124.379,158.984 124.586 M176.263 147.266 C 176.263 148.018,176.343 148.325,176.441 147.949 C 176.539 147.573,176.539 146.958,176.441 146.582 C 176.343 146.206,176.263 146.514,176.263 147.266 M253.997 160.547 C 253.997 161.299,254.077 161.606,254.176 161.230 C 254.274 160.854,254.274 160.239,254.176 159.863 C 254.077 159.487,253.997 159.795,253.997 160.547 M138.402 175.977 C 138.404 177.266,138.477 177.746,138.564 177.044 C 138.651 176.342,138.649 175.287,138.560 174.700 C 138.471 174.113,138.400 174.688,138.402 175.977 M268.899 179.883 C 268.900 182.461,268.963 183.465,269.040 182.114 C 269.116 180.762,269.115 178.653,269.038 177.426 C 268.961 176.199,268.898 177.305,268.899 179.883 M272.397 179.688 C 272.397 181.299,272.466 181.958,272.550 181.152 C 272.634 180.347,272.634 179.028,272.550 178.223 C 272.466 177.417,272.397 178.076,272.397 179.688 M259.290 179.585 C 260.426 179.664,262.183 179.664,263.197 179.583 C 264.210 179.503,263.281 179.439,261.133 179.440 C 258.984 179.441,258.155 179.506,259.290 179.585 M255.971 182.617 C 255.974 183.691,256.050 184.084,256.140 183.491 C 256.229 182.897,256.227 182.018,256.134 181.538 C 256.042 181.057,255.968 181.543,255.971 182.617 M260.449 181.142 C 261.147 181.229,262.290 181.229,262.988 181.142 C 263.687 181.055,263.115 180.984,261.719 180.984 C 260.322 180.984,259.751 181.055,260.449 181.142 M138.398 183.984 C 138.398 185.166,138.472 185.649,138.561 185.059 C 138.651 184.468,138.651 183.501,138.561 182.910 C 138.472 182.319,138.398 182.803,138.398 183.984 M182.910 208.472 C 183.286 208.571,183.901 208.571,184.277 208.472 C 184.653 208.374,184.346 208.294,183.594 208.294 C 182.842 208.294,182.534 208.374,182.910 208.472 M181.641 218.968 C 183.092 219.284,185.084 219.339,184.910 219.059 C 184.805 218.889,183.895 218.770,182.887 218.795 C 181.879 218.820,181.318 218.898,181.641 218.968 M191.699 219.033 C 192.397 219.119,193.540 219.119,194.238 219.033 C 194.937 218.946,194.365 218.875,192.969 218.875 C 191.572 218.875,191.001 218.946,191.699 219.033 M197.949 219.026 C 198.433 219.119,199.224 219.119,199.707 219.026 C 200.190 218.933,199.795 218.856,198.828 218.856 C 197.861 218.856,197.466 218.933,197.949 219.026 M210.352 218.948 C 211.244 219.259,213.602 219.344,213.426 219.059 C 213.321 218.889,212.498 218.764,211.598 218.781 C 210.698 218.798,210.137 218.873,210.352 218.948 M221.279 219.125 C 221.417 219.348,221.989 219.531,222.549 219.531 C 223.774 219.531,223.632 219.344,222.135 218.985 C 221.409 218.810,221.115 218.858,221.279 219.125 M174.023 232.813 C 174.863 233.672,175.637 234.375,175.744 234.375 C 175.852 234.375,175.253 233.672,174.414 232.813 C 173.575 231.953,172.800 231.250,172.693 231.250 C 172.586 231.250,173.184 231.953,174.023 232.813 M209.375 232.517 C 209.375 232.679,210.474 232.792,211.816 232.767 C 214.455 232.718,214.199 232.532,211.230 232.340 C 210.210 232.275,209.375 232.354,209.375 232.517 M182.129 232.702 C 182.720 232.791,183.687 232.791,184.277 232.702 C 184.868 232.612,184.385 232.539,183.203 232.539 C 182.021 232.539,181.538 232.612,182.129 232.702 M196.582 232.702 C 197.173 232.791,198.140 232.791,198.730 232.702 C 199.321 232.612,198.838 232.539,197.656 232.539 C 196.475 232.539,195.991 232.612,196.582 232.702 M244.518 244.824 L 242.383 247.070 244.629 244.935 C 246.716 242.952,247.054 242.578,246.764 242.578 C 246.703 242.578,245.692 243.589,244.518 244.824 M162.891 245.044 C 162.891 245.111,163.462 245.683,164.160 246.314 L 165.430 247.461 164.282 246.191 C 163.213 245.008,162.891 244.742,162.891 245.044 M248.999 246.191 L 247.852 247.461 249.121 246.314 C 249.819 245.683,250.391 245.111,250.391 245.044 C 250.391 244.742,250.068 245.008,248.999 246.191 M161.133 248.828 C 161.972 249.688,162.746 250.391,162.854 250.391 C 162.961 250.391,162.363 249.688,161.523 248.828 C 160.684 247.969,159.910 247.266,159.802 247.266 C 159.695 247.266,160.294 247.969,161.133 248.828 M202.453 266.694 C 203.480 266.775,205.062 266.774,205.969 266.692 C 206.875 266.610,206.035 266.544,204.102 266.545 C 202.168 266.546,201.426 266.613,202.453 266.694 M201.287 267.478 C 202.962 267.552,205.599 267.551,207.147 267.477 C 208.695 267.403,207.324 267.343,204.102 267.344 C 200.879 267.344,199.613 267.405,201.287 267.478 " stroke="none" fill="#df9ea2" fill-rule="evenodd"></path></g></svg>